<?xml version="1.0" encoding="UTF-8"?>
<svg id="Layer_1" data-name="Layer 1" xmlns="http://www.w3.org/2000/svg" viewBox="0 0 591.33 341.36">
  <defs>
    <style>
      .cls-1 {
        letter-spacing: -.09em;
      }

      .cls-2 {
        letter-spacing: -.02em;
      }

      .cls-3 {
        fill: #231f20;
        font-family: Helvetica-Bold, Helvetica;
        font-size: 8px;
        font-weight: 700;
      }

      .cls-4, .cls-5, .cls-6 {
        fill: #f1f2f2;
      }

      .cls-4, .cls-7, .cls-8, .cls-9, .cls-10, .cls-11, .cls-12, .cls-13, .cls-14, .cls-15 {
        stroke-miterlimit: 10;
      }

      .cls-4, .cls-15 {
        stroke: #939598;
        stroke-width: .5px;
      }

      .cls-16 {
        letter-spacing: -.05em;
      }

      .cls-5, .cls-17 {
        font-size: 12px;
      }

      .cls-5, .cls-17, .cls-18, .cls-19, .cls-6 {
        font-family: Helvetica, Helvetica;
      }

      .cls-17, .cls-18 {
        fill: #6d6e71;
      }

      .cls-20 {
        fill: #808285;
        font-family: Helvetica-LightOblique, Helvetica;
        font-size: 17px;
        font-style: oblique;
        font-weight: 300;
      }

      .cls-7 {
        fill: rgba(248, 153, 37, .7);
        stroke: #f89925;
      }

      .cls-7, .cls-8, .cls-9, .cls-10, .cls-11, .cls-12, .cls-13, .cls-14 {
        stroke-width: 3px;
      }

      .cls-8 {
        fill: rgba(109, 110, 113, .7);
        stroke: #6d6e71;
      }

      .cls-9 {
        fill: rgba(70, 127, 193, .7);
        stroke: #467fc1;
      }

      .cls-10 {
        fill: rgba(211, 63, 73, .7);
        stroke: #d33f49;
      }

      .cls-11 {
        fill: rgba(240, 211, 73, .7);
        stroke: #f0d349;
      }

      .cls-12 {
        fill: rgba(146, 39, 143, .7);
        stroke: #92278f;
      }

      .cls-13 {
        fill: rgba(0, 174, 239, .7);
        stroke: #00aeef;
      }

      .cls-14 {
        fill: rgba(4, 176, 123, .7);
        stroke: #04b07b;
      }

      .cls-18, .cls-19, .cls-6 {
        font-size: 14px;
      }

      .cls-19 {
        fill: #fff;
      }

      .cls-15 {
        fill: none;
      }
    </style>
  </defs>
  <rect class="cls-4" x="19.25" y="192.36" width="555.44" height="132.87"/>
  <g>
    <rect class="cls-9" x="37.89" y="28.78" width="120" height="75"/>
    <text class="cls-6" transform="translate(50.81 67.86)"><tspan class="cls-16" x="0" y="0">A</tspan><tspan x="8.57" y="0" xml:space="preserve"> first look at R</tspan></text>
  </g>
  <g>
    <rect class="cls-14" x="174" y="28.78" width="120" height="75"/>
    <text class="cls-19" transform="translate(178.37 60.66)"><tspan x="0" y="0">Getting familiar</tspan><tspan x="0" y="16.8">with programming</tspan></text>
  </g>
  <g>
    <rect class="cls-10" x="310.12" y="28.78" width="120" height="75"/>
    <text class="cls-19" transform="translate(324.33 53.46)"><tspan class="cls-2" x="0" y="0">V</tspan><tspan x="9.09" y="0">isualization &amp;</tspan><tspan x="0" y="16.8">Unsupervised</tspan><tspan x="0" y="33.6">analysis</tspan></text>
  </g>
  <g>
    <rect class="cls-11" x="446.23" y="28.78" width="120" height="75"/>
    <text class="cls-18" transform="translate(465.16 69.21)"><tspan x="0" y="0">Going furthR</tspan></text>
  </g>
  <rect class="cls-7" x="359.3" y="219.71" width="92.65" height="40.02"/>
  <text class="cls-17" transform="translate(366.33 235.76)"><tspan x="0" y="0">Code</tspan><tspan x="0" y="14.4">peer review</tspan></text>
  <g>
    <rect class="cls-12" x="40.76" y="219.71" width="92.65" height="40.02"/>
    <text class="cls-5" transform="translate(47.8 235.14)"><tspan x="0" y="0">Lectures + </tspan><tspan x="0" y="14.4">assignments</tspan></text>
  </g>
  <g>
    <rect class="cls-12" x="147.32" y="219.71" width="92.65" height="40.02"/>
    <text class="cls-5" transform="translate(154.35 235.14)"><tspan x="0" y="0">Lectures + </tspan><tspan x="0" y="14.4">assignments</tspan></text>
  </g>
  <g>
    <rect class="cls-12" x="253.87" y="219.71" width="92.65" height="40.02"/>
    <text class="cls-5" transform="translate(260.9 235.14)"><tspan x="0" y="0">Lectures + </tspan><tspan x="0" y="14.4">assignments</tspan></text>
  </g>
  <g>
    <rect class="cls-12" x="40.76" y="271.46" width="92.65" height="40.02"/>
    <text class="cls-5" transform="translate(47.8 286.89)"><tspan x="0" y="0">Lectures + </tspan><tspan x="0" y="14.4">assignments</tspan></text>
  </g>
  <g>
    <rect class="cls-12" x="147.32" y="271.46" width="92.65" height="40.02"/>
    <text class="cls-5" transform="translate(154.35 286.89)"><tspan x="0" y="0">Lectures + </tspan><tspan x="0" y="14.4">assignments</tspan></text>
  </g>
  <g>
    <rect class="cls-12" x="253.87" y="271.46" width="92.65" height="40.02"/>
    <text class="cls-5" transform="translate(260.9 286.89)"><tspan x="0" y="0">Lectures + </tspan><tspan x="0" y="14.4">assignments</tspan></text>
  </g>
  <rect class="cls-13" x="466.25" y="220.11" width="92.65" height="40.02"/>
  <text class="cls-5" transform="translate(494.41 243.6)"><tspan x="0" y="0">Exam</tspan></text>
  <rect class="cls-8" x="359.52" y="271.46" width="92.65" height="40.02"/>
  <text class="cls-5" transform="translate(376.56 295.33)"><tspan x="0" y="0">Self study</tspan></text>
  <text class="cls-3" transform="translate(38.88 214.59)"><tspan x="0" y="0">MOND</tspan><tspan class="cls-1" x="24.44" y="0">A</tspan><tspan class="cls-2" x="29.48" y="0">Y</tspan></text>
  <text class="cls-3" transform="translate(147.31 214.05)"><tspan x="0" y="0">TUESD</tspan><tspan class="cls-1" x="27.11" y="0">A</tspan><tspan class="cls-2" x="32.16" y="0">Y</tspan></text>
  <text class="cls-3" transform="translate(254.82 214.05)"><tspan x="0" y="0">WEDNESD</tspan><tspan class="cls-1" x="40.89" y="0">A</tspan><tspan class="cls-2" x="45.93" y="0">Y</tspan></text>
  <text class="cls-3" transform="translate(357.98 214.05)"><tspan x="0" y="0">THURSD</tspan><tspan class="cls-1" x="33.33" y="0">A</tspan><tspan class="cls-2" x="38.38" y="0">Y</tspan></text>
  <text class="cls-3" transform="translate(466.96 214.05)"><tspan x="0" y="0">FRID</tspan><tspan class="cls-1" x="18.66" y="0">A</tspan><tspan class="cls-2" x="23.71" y="0">Y</tspan></text>
  <text class="cls-3" transform="translate(36.69 254.62) rotate(-90)"><tspan x="0" y="0">morning</tspan></text>
  <text class="cls-3" transform="translate(36.55 309.57) rotate(-90)"><tspan x="0" y="0">afternoon</tspan></text>
  <line class="cls-15" x1="40.11" y1="111.71" x2="23.78" y2="186.99"/>
  <line class="cls-15" x1="155.16" y1="109.58" x2="571.31" y2="186.99"/>
  <text class="cls-3" transform="translate(37.15 22.63)"><tspan x="0" y="0">WEEK I</tspan></text>
  <text class="cls-3" transform="translate(174.24 23.18)"><tspan x="0" y="0">WEEK II</tspan></text>
  <text class="cls-3" transform="translate(309.61 22.95)"><tspan x="0" y="0">WEEK III</tspan></text>
  <text class="cls-3" transform="translate(445.94 22.76)"><tspan x="0" y="0">WEEK IV</tspan></text>
  <text class="cls-20" transform="translate(33.41 186.25)"><tspan x="0" y="0">Weekly schedule</tspan></text>
</svg>